<svg width="22" height="22" viewBox="0 0 22 22" fill="none" xmlns="http://www.w3.org/2000/svg">
<rect width="22" height="22" rx="11" fill="#475467"/>
<g clip-path="url(#clip0_136_3700)">
<path d="M11 4.44062C13.1375 4.44062 13.3906 4.45 14.2313 4.4875C15.0125 4.52187 15.4344 4.65313 15.7156 4.7625C16.0875 4.90625 16.3563 5.08125 16.6344 5.35938C16.9156 5.64063 17.0875 5.90625 17.2313 6.27813C17.3406 6.55938 17.4719 6.98437 17.5063 7.7625C17.5438 8.60625 17.5531 8.85938 17.5531 10.9938C17.5531 13.1313 17.5438 13.3844 17.5063 14.225C17.4719 15.0063 17.3406 15.4281 17.2313 15.7094C17.0875 16.0813 16.9125 16.35 16.6344 16.6281C16.3531 16.9094 16.0875 17.0813 15.7156 17.225C15.4344 17.3344 15.0094 17.4656 14.2313 17.5C13.3875 17.5375 13.1344 17.5469 11 17.5469C8.8625 17.5469 8.60938 17.5375 7.76875 17.5C6.9875 17.4656 6.56563 17.3344 6.28438 17.225C5.9125 17.0813 5.64375 16.9063 5.36563 16.6281C5.08438 16.3469 4.9125 16.0813 4.76875 15.7094C4.65938 15.4281 4.52813 15.0031 4.49375 14.225C4.45625 13.3813 4.44688 13.1281 4.44688 10.9938C4.44688 8.85625 4.45625 8.60312 4.49375 7.7625C4.52813 6.98125 4.65938 6.55938 4.76875 6.27813C4.9125 5.90625 5.0875 5.6375 5.36563 5.35938C5.64688 5.07813 5.9125 4.90625 6.28438 4.7625C6.56563 4.65313 6.99063 4.52187 7.76875 4.4875C8.60938 4.45 8.8625 4.44062 11 4.44062ZM11 3C8.82813 3 8.55625 3.00937 7.70313 3.04688C6.85313 3.08438 6.26875 3.22187 5.7625 3.41875C5.23438 3.625 4.7875 3.89688 4.34375 4.34375C3.89688 4.7875 3.625 5.23438 3.41875 5.75938C3.22187 6.26875 3.08438 6.85 3.04688 7.7C3.00938 8.55625 3 8.82813 3 11C3 13.1719 3.00938 13.4438 3.04688 14.2969C3.08438 15.1469 3.22187 15.7313 3.41875 16.2375C3.625 16.7656 3.89688 17.2125 4.34375 17.6563C4.7875 18.1 5.23438 18.375 5.75938 18.5781C6.26875 18.775 6.85 18.9125 7.7 18.95C8.55313 18.9875 8.825 18.9969 10.9969 18.9969C13.1688 18.9969 13.4406 18.9875 14.2938 18.95C15.1438 18.9125 15.7281 18.775 16.2344 18.5781C16.7594 18.375 17.2063 18.1 17.65 17.6563C18.0938 17.2125 18.3688 16.7656 18.5719 16.2406C18.7688 15.7313 18.9063 15.15 18.9438 14.3C18.9813 13.4469 18.9906 13.175 18.9906 11.0031C18.9906 8.83125 18.9813 8.55938 18.9438 7.70625C18.9063 6.85625 18.7688 6.27188 18.5719 5.76563C18.375 5.23438 18.1031 4.7875 17.6563 4.34375C17.2125 3.9 16.7656 3.625 16.2406 3.42188C15.7313 3.225 15.15 3.0875 14.3 3.05C13.4438 3.00938 13.1719 3 11 3Z" fill="white"/>
<path d="M11 6.89062C8.73125 6.89062 6.89062 8.73125 6.89062 11C6.89062 13.2688 8.73125 15.1094 11 15.1094C13.2688 15.1094 15.1094 13.2688 15.1094 11C15.1094 8.73125 13.2688 6.89062 11 6.89062ZM11 13.6656C9.52813 13.6656 8.33438 12.4719 8.33438 11C8.33438 9.52813 9.52813 8.33438 11 8.33438C12.4719 8.33438 13.6656 9.52813 13.6656 11C13.6656 12.4719 12.4719 13.6656 11 13.6656Z" fill="white"/>
<path d="M16.2313 6.72793C16.2313 7.25918 15.8 7.68731 15.2719 7.68731C14.7406 7.68731 14.3125 7.25606 14.3125 6.72793C14.3125 6.19668 14.7438 5.76855 15.2719 5.76855C15.8 5.76855 16.2313 6.19981 16.2313 6.72793Z" fill="white"/>
</g>
<defs>
<clipPath id="clip0_136_3700">
<rect width="16" height="16" fill="white" transform="translate(3 3)"/>
</clipPath>
</defs>
</svg>
