<svg width="22" height="22" viewBox="0 0 22 22" fill="none" xmlns="http://www.w3.org/2000/svg">
<rect width="22" height="22" rx="11" fill="#475467"/>
<path d="M18.8406 7.8002C18.8406 7.8002 18.6844 6.69707 18.2031 6.2127C17.5938 5.5752 16.9125 5.57207 16.6 5.53457C14.3625 5.37207 11.0031 5.37207 11.0031 5.37207H10.9969C10.9969 5.37207 7.6375 5.37207 5.4 5.53457C5.0875 5.57207 4.40625 5.5752 3.79688 6.2127C3.31563 6.69707 3.1625 7.8002 3.1625 7.8002C3.1625 7.8002 3 9.09707 3 10.3908V11.6033C3 12.8971 3.15937 14.1939 3.15937 14.1939C3.15937 14.1939 3.31562 15.2971 3.79375 15.7814C4.40313 16.4189 5.20313 16.3971 5.55938 16.4658C6.84063 16.5877 11 16.6252 11 16.6252C11 16.6252 14.3625 16.6189 16.6 16.4596C16.9125 16.4221 17.5938 16.4189 18.2031 15.7814C18.6844 15.2971 18.8406 14.1939 18.8406 14.1939C18.8406 14.1939 19 12.9002 19 11.6033V10.3908C19 9.09707 18.8406 7.8002 18.8406 7.8002ZM9.34688 13.0752V8.57832L13.6687 10.8346L9.34688 13.0752Z" fill="white"/>
</svg>
