<svg width="22" height="22" viewBox="0 0 22 22" fill="none" xmlns="http://www.w3.org/2000/svg">
<rect width="22" height="22" rx="11" fill="#475467"/>
<path d="M14.3817 3H11.6852V13.8985C11.6852 15.1971 10.6481 16.2638 9.35749 16.2638C8.06687 16.2638 7.02977 15.1971 7.02977 13.8985C7.02977 12.6232 8.04383 11.5797 9.28836 11.5333V8.79711C6.54579 8.84347 4.33331 11.0928 4.33331 13.8985C4.33331 16.7276 6.59188 19 9.38055 19C12.1692 19 14.4277 16.7044 14.4277 13.8985V8.31013C15.4418 9.05218 16.6863 9.49276 18 9.51596V6.77971C15.9719 6.71015 14.3817 5.04058 14.3817 3Z" fill="white"/>
</svg>
